<svg width="14" height="14" viewBox="0 0 14 14" fill="none" xmlns="http://www.w3.org/2000/svg">
<path d="M9.91667 9.91667H11.0833C11.3928 9.91667 11.6895 9.79375 11.9083 9.57496C12.1271 9.35617 12.25 9.05942 12.25 8.75V6.41667C12.25 6.10725 12.1271 5.8105 11.9083 5.59171C11.6895 5.37292 11.3928 5.25 11.0833 5.25H2.91667C2.60725 5.25 2.3105 5.37292 2.09171 5.59171C1.87292 5.8105 1.75 6.10725 1.75 6.41667V8.75C1.75 9.05942 1.87292 9.35617 2.09171 9.57496C2.3105 9.79375 2.60725 9.91667 2.91667 9.91667H4.08333M9.91667 5.25V2.91667C9.91667 2.60725 9.79375 2.3105 9.57496 2.09171C9.35616 1.87292 9.05942 1.75 8.75 1.75H5.25C4.94058 1.75 4.64383 1.87292 4.42504 2.09171C4.20625 2.3105 4.08333 2.60725 4.08333 2.91667V5.25" stroke="#8E90A0" stroke-linecap="round" stroke-linejoin="round"/>
<path d="M4.08325 8.75016C4.08325 8.44074 4.20617 8.144 4.42496 7.92521C4.64375 7.70641 4.9405 7.5835 5.24992 7.5835H8.74992C9.05934 7.5835 9.35608 7.70641 9.57488 7.92521C9.79367 8.144 9.91659 8.44074 9.91659 8.75016V11.0835C9.91659 11.3929 9.79367 11.6897 9.57488 11.9085C9.35608 12.1272 9.05934 12.2502 8.74992 12.2502H5.24992C4.9405 12.2502 4.64375 12.1272 4.42496 11.9085C4.20617 11.6897 4.08325 11.3929 4.08325 11.0835V8.75016Z" stroke="#8E90A0" stroke-linecap="round" stroke-linejoin="round"/>
</svg>
