<svg width="16" height="16" viewBox="0 0 16 16" fill="none" xmlns="http://www.w3.org/2000/svg">
<circle cx="8" cy="8" r="8" fill="#00B6DA"/>
<path fill-rule="evenodd" clip-rule="evenodd" d="M8.16675 4C8.29936 4 8.42653 4.04683 8.5203 4.13017C8.61407 4.21352 8.66675 4.32657 8.66675 4.44444V4.6323C9.75341 4.80533 10.6667 5.53126 10.6667 6.51852C10.6667 6.63639 10.6141 6.74944 10.5203 6.83279C10.4265 6.91614 10.2994 6.96296 10.1667 6.96296C10.0341 6.96296 9.90696 6.91614 9.8132 6.83279C9.71943 6.74944 9.66675 6.63639 9.66675 6.51852C9.66675 6.11674 9.29075 5.69067 8.66675 5.53896V7.59526C9.75341 7.7683 10.6667 8.49422 10.6667 9.48148C10.6667 10.4687 9.75341 11.1947 8.66675 11.3677V11.5556C8.66675 11.6734 8.61407 11.7865 8.5203 11.8698C8.42653 11.9532 8.29936 12 8.16675 12C8.03414 12 7.90696 11.9532 7.81319 11.8698C7.71943 11.7865 7.66675 11.6734 7.66675 11.5556V11.3677C6.58008 11.1947 5.66675 10.4687 5.66675 9.48148C5.66675 9.36361 5.71943 9.25056 5.81319 9.16721C5.90696 9.08386 6.03414 9.03704 6.16675 9.03704C6.29936 9.03704 6.42653 9.08386 6.5203 9.16721C6.61407 9.25056 6.66675 9.36361 6.66675 9.48148C6.66675 9.88326 7.04275 10.3093 7.66675 10.4604V8.40474C6.58008 8.2317 5.66675 7.50578 5.66675 6.51852C5.66675 5.53126 6.58008 4.80533 7.66675 4.6323V4.44444C7.66675 4.32657 7.71943 4.21352 7.81319 4.13017C7.90696 4.04683 8.03414 4 8.16675 4ZM7.66675 5.53896C7.04275 5.69067 6.66675 6.11674 6.66675 6.51852C6.66675 6.9203 7.04275 7.34637 7.66675 7.49748V5.53896ZM9.66675 9.48148C9.66675 9.0797 9.29075 8.65363 8.66675 8.50252V10.4604C9.29075 10.3093 9.66675 9.88326 9.66675 9.48148Z" fill="white"/>
</svg>
