<svg width="24" height="24" viewBox="0 0 24 24" fill="none" xmlns="http://www.w3.org/2000/svg">
<path d="M12.001 2.00098C17.524 2.00098 22.001 6.47798 22.001 12.001C22.001 17.524 17.524 22.001 12.001 22.001C10.2337 22.004 8.49757 21.5363 6.97099 20.646L2.00499 22.001L3.35699 17.033C2.46595 15.5059 1.99789 13.769 2.00099 12.001C2.00099 6.47798 6.47799 2.00098 12.001 2.00098ZM8.59299 7.30098L8.39299 7.30898C8.26368 7.31789 8.13734 7.35185 8.02099 7.40898C7.91257 7.47049 7.81355 7.54727 7.72699 7.63698C7.60699 7.74998 7.53899 7.84798 7.46599 7.94298C7.09611 8.42388 6.89696 9.01429 6.89999 9.62098C6.90199 10.111 7.02999 10.588 7.22999 11.034C7.63899 11.936 8.31199 12.891 9.19999 13.776C9.41399 13.989 9.62399 14.203 9.84999 14.402C10.9534 15.3734 12.2683 16.0739 13.69 16.448L14.258 16.535C14.443 16.545 14.628 16.531 14.814 16.522C15.1052 16.5066 15.3895 16.4278 15.647 16.291C15.7778 16.2233 15.9056 16.1499 16.03 16.071C16.03 16.071 16.0723 16.0423 16.155 15.981C16.29 15.881 16.373 15.81 16.485 15.693C16.569 15.6063 16.639 15.5056 16.695 15.391C16.773 15.228 16.851 14.917 16.883 14.658C16.907 14.46 16.9 14.352 16.897 14.285C16.893 14.178 16.804 14.067 16.707 14.02L16.125 13.759C16.125 13.759 15.255 13.38 14.723 13.138C14.6673 13.1137 14.6077 13.0998 14.547 13.097C14.4786 13.0898 14.4094 13.0975 14.3442 13.1194C14.279 13.1413 14.2192 13.177 14.169 13.224C14.164 13.222 14.097 13.279 13.374 14.155C13.3325 14.2107 13.2753 14.2529 13.2098 14.276C13.1443 14.2992 13.0733 14.3023 13.006 14.285C12.9408 14.2676 12.877 14.2455 12.815 14.219C12.691 14.167 12.648 14.147 12.563 14.111C11.9889 13.8609 11.4574 13.5225 10.988 13.108C10.862 12.998 10.745 12.878 10.625 12.762C10.2316 12.3852 9.88874 11.959 9.60499 11.494L9.54599 11.399C9.50425 11.3348 9.47003 11.266 9.44399 11.194C9.40599 11.047 9.50499 10.929 9.50499 10.929C9.50499 10.929 9.74799 10.663 9.86099 10.519C9.97099 10.379 10.064 10.243 10.124 10.146C10.242 9.95598 10.279 9.76098 10.217 9.60998C9.93699 8.92598 9.64766 8.24564 9.34899 7.56898C9.28999 7.43498 9.11499 7.33898 8.95599 7.31998C8.90199 7.31331 8.84799 7.30798 8.79399 7.30398C8.65972 7.29628 8.52508 7.29761 8.39099 7.30798L8.59299 7.30098Z" fill="#00B6DA"/>
</svg>
