<svg width="20" height="21" viewBox="0 0 20 21" fill="none" xmlns="http://www.w3.org/2000/svg">
<path d="M17.5 17.9829L12.5 12.9829M2.5 8.81624C2.5 9.58229 2.65088 10.3408 2.94404 11.0486C3.23719 11.7563 3.66687 12.3994 4.20854 12.941C4.75022 13.4827 5.39328 13.9124 6.10101 14.2055C6.80875 14.4987 7.56729 14.6496 8.33333 14.6496C9.09938 14.6496 9.85792 14.4987 10.5657 14.2055C11.2734 13.9124 11.9164 13.4827 12.4581 12.941C12.9998 12.3994 13.4295 11.7563 13.7226 11.0486C14.0158 10.3408 14.1667 9.58229 14.1667 8.81624C14.1667 8.0502 14.0158 7.29166 13.7226 6.58392C13.4295 5.87619 12.9998 5.23313 12.4581 4.69145C11.9164 4.14978 11.2734 3.7201 10.5657 3.42695C9.85792 3.13379 9.09938 2.98291 8.33333 2.98291C7.56729 2.98291 6.80875 3.13379 6.10101 3.42695C5.39328 3.7201 4.75022 4.14978 4.20854 4.69145C3.66687 5.23313 3.23719 5.87619 2.94404 6.58392C2.65088 7.29166 2.5 8.0502 2.5 8.81624Z" stroke="black" stroke-linecap="round" stroke-linejoin="round"/>
</svg>
