<svg width="20" height="21" viewBox="0 0 20 21" fill="none" xmlns="http://www.w3.org/2000/svg">
<path d="M16.25 10.9595L9.99997 17.1495L3.74997 10.9595C3.33772 10.5583 3.013 10.0762 2.79626 9.54334C2.57951 9.01053 2.47543 8.43861 2.49058 7.86359C2.50573 7.28858 2.63977 6.72293 2.88426 6.20226C3.12876 5.68159 3.47841 5.21719 3.9112 4.8383C4.344 4.4594 4.85055 4.17422 5.39898 4.00071C5.9474 3.82721 6.5258 3.76913 7.09777 3.83015C7.66974 3.89116 8.22288 4.06994 8.72236 4.35524C9.22184 4.64053 9.65684 5.02615 9.99997 5.48781C10.3446 5.0295 10.7801 4.64725 11.2792 4.36498C11.7784 4.08272 12.3304 3.90652 12.9007 3.84741C13.4711 3.78831 14.0475 3.84756 14.5939 4.02147C15.1404 4.19538 15.645 4.48021 16.0763 4.85812C16.5075 5.23602 16.8562 5.69888 17.1003 6.21772C17.3445 6.73656 17.4789 7.30022 17.4952 7.8734C17.5115 8.44659 17.4093 9.01697 17.1951 9.54886C16.9808 10.0807 16.6591 10.5627 16.25 10.9645" stroke="black" stroke-linecap="round" stroke-linejoin="round"/>
</svg>
