<svg width="24" height="24" viewBox="0 0 24 24" fill="none" xmlns="http://www.w3.org/2000/svg">
<path d="M19.577 11.4619C19.4383 11.4619 19.3193 11.4139 19.22 11.3179C19.1207 11.2219 19.0607 11.1032 19.04 10.9619C18.824 9.28325 18.1187 7.84691 16.924 6.65291C15.73 5.45891 14.294 4.75358 12.616 4.53691C12.4733 4.51625 12.3543 4.45725 12.259 4.35991C12.1637 4.26258 12.116 4.14258 12.116 3.99991C12.116 3.85725 12.1647 3.73825 12.262 3.64291C12.3593 3.54758 12.4773 3.51025 12.616 3.53091C14.5873 3.73825 16.2667 4.53558 17.654 5.92291C19.0413 7.31025 19.8387 8.98991 20.046 10.9619C20.0667 11.0999 20.0293 11.2179 19.934 11.3159C19.838 11.4126 19.719 11.4619 19.577 11.4619ZM15.479 11.4609C15.365 11.4609 15.2663 11.4246 15.183 11.3519C15.0997 11.2786 15.0353 11.1812 14.99 11.0599C14.8187 10.4606 14.5133 9.93525 14.074 9.48391C13.6347 9.03191 13.1157 8.72625 12.517 8.56691C12.3957 8.52225 12.2983 8.45825 12.225 8.37491C12.1517 8.29158 12.115 8.19091 12.115 8.07291C12.115 7.90625 12.171 7.77325 12.283 7.67391C12.395 7.57458 12.5283 7.54525 12.683 7.58591C13.501 7.77725 14.2057 8.16858 14.797 8.75991C15.3883 9.35125 15.7863 10.0626 15.991 10.8939C16.0317 11.0492 15.9983 11.1826 15.891 11.2939C15.783 11.4052 15.6457 11.4609 15.479 11.4609ZM18.93 19.9999C17.244 19.9999 15.5157 19.5779 13.745 18.7339C11.9743 17.8899 10.3263 16.7049 8.801 15.1789C7.28767 13.6536 6.109 12.0086 5.265 10.2439C4.421 8.47925 3.99933 6.75458 4 5.06991C4 4.76991 4.1 4.51658 4.3 4.30991C4.5 4.10325 4.75 3.99991 5.05 3.99991H7.523C7.795 3.99991 8.03233 4.08558 8.235 4.25691C8.43767 4.42825 8.57467 4.64791 8.646 4.91591L9.142 7.29991C9.18867 7.57991 9.18033 7.82425 9.117 8.03291C9.05367 8.24158 8.94267 8.41258 8.784 8.54591L6.59 10.5919C7.00067 11.3366 7.45433 12.0286 7.951 12.6679C8.44767 13.3072 8.97767 13.9129 9.541 14.4849C10.121 15.0649 10.7457 15.6049 11.415 16.1049C12.0843 16.6042 12.819 17.0756 13.619 17.5189L15.758 15.3419C15.9207 15.1666 16.1037 15.0509 16.307 14.9949C16.5097 14.9396 16.7343 14.9286 16.981 14.9619L19.084 15.3919C19.356 15.4586 19.5767 15.5956 19.746 15.8029C19.9153 16.0102 20 16.2476 20 16.5149V18.9499C20 19.2499 19.8967 19.4999 19.69 19.6999C19.4833 19.8999 19.23 19.9999 18.93 19.9999Z" fill="black"/>
</svg>
