<svg width="24" height="25" viewBox="0 0 24 25" fill="none" xmlns="http://www.w3.org/2000/svg">
<path d="M9.90425 7.71396C9.90425 7.18196 10.3354 6.75146 10.8667 6.75146H13.1802C16.3659 6.75146 18.9748 9.29736 18.9748 12.4705C18.9748 15.6422 16.3659 18.1888 13.1802 18.1888H10.866C10.334 18.1888 9.90355 17.7576 9.90355 17.2263L9.90425 7.71396ZM11.8292 16.1763C11.8292 16.2246 11.8684 16.2638 11.9167 16.2638H13.1802C15.332 16.2638 17.0498 14.5509 17.0498 12.4698C17.0498 10.3887 15.332 8.67576 13.1802 8.67576H11.916C11.9045 8.67576 11.8931 8.67805 11.8824 8.68249C11.8717 8.68693 11.8621 8.69344 11.8539 8.70164C11.8458 8.70984 11.8394 8.71957 11.835 8.73027C11.8307 8.74096 11.8285 8.75242 11.8285 8.76396L11.8292 16.1763ZM7.36955 6.82286C7.49597 6.82259 7.62121 6.84724 7.7381 6.89541C7.85498 6.94357 7.96123 7.01431 8.05075 7.10358C8.14028 7.19284 8.21133 7.29888 8.25983 7.41563C8.30834 7.53238 8.33336 7.65754 8.33345 7.78396L8.34325 17.1535C8.34353 17.4087 8.24239 17.6537 8.06208 17.8344C7.88177 18.0151 7.63707 18.1167 7.3818 18.117C7.12653 18.1173 6.8816 18.0162 6.7009 17.8358C6.5202 17.6555 6.41853 17.4108 6.41825 17.1556L6.40845 7.78606C6.40826 7.65967 6.43298 7.53447 6.48118 7.41762C6.52938 7.30078 6.60012 7.19457 6.68937 7.10506C6.77861 7.01556 6.88462 6.94451 7.00132 6.89597C7.11803 6.84743 7.24315 6.82305 7.36955 6.82286Z" fill="#8E90A0"/>
<path d="M5 2C4.54037 2 4.08525 2.09053 3.66061 2.26642C3.23597 2.44231 2.85013 2.70012 2.52513 3.02513C1.86875 3.6815 1.5 4.57174 1.5 5.5V19.5C1.5 20.4283 1.86875 21.3185 2.52513 21.9749C2.85013 22.2999 3.23597 22.5577 3.66061 22.7336C4.08525 22.9095 4.54037 23 5 23H19C19.9283 23 20.8185 22.6313 21.4749 21.9749C22.1313 21.3185 22.5 20.4283 22.5 19.5V5.5C22.5 5.04037 22.4095 4.58525 22.2336 4.16061C22.0577 3.73597 21.7999 3.35013 21.4749 3.02513C21.1499 2.70012 20.764 2.44231 20.3394 2.26642C19.9148 2.09053 19.4596 2 19 2H5ZM2.9 5.5C2.9 4.94305 3.12125 4.4089 3.51508 4.01508C3.9089 3.62125 4.44305 3.4 5 3.4H19C19.557 3.4 20.0911 3.62125 20.4849 4.01508C20.8787 4.4089 21.1 4.94305 21.1 5.5V19.5C21.1 20.057 20.8787 20.5911 20.4849 20.9849C20.0911 21.3787 19.557 21.6 19 21.6H5C4.44305 21.6 3.9089 21.3787 3.51508 20.9849C3.12125 20.5911 2.9 20.057 2.9 19.5V5.5Z" fill="#8E90A0"/>
</svg>
