<svg width="16" height="17" viewBox="0 0 16 17" fill="none" xmlns="http://www.w3.org/2000/svg">
<path d="M6 8.5C6 9.03043 6.21071 9.53914 6.58579 9.91421C6.96086 10.2893 7.46957 10.5 8 10.5C8.53043 10.5 9.03914 10.2893 9.41421 9.91421C9.78929 9.53914 10 9.03043 10 8.5C10 7.96957 9.78929 7.46086 9.41421 7.08579C9.03914 6.71071 8.53043 6.5 8 6.5C7.46957 6.5 6.96086 6.71071 6.58579 7.08579C6.21071 7.46086 6 7.96957 6 8.5Z" stroke="#59656F" stroke-linecap="round" stroke-linejoin="round"/>
<path d="M2.66659 8.49967C2.66659 9.91416 3.22849 11.2707 4.22868 12.2709C5.22888 13.2711 6.58543 13.833 7.99992 13.833M2.66659 8.49967C2.66659 7.08519 3.22849 5.72863 4.22868 4.72844C5.22888 3.72824 6.58543 3.16634 7.99992 3.16634M2.66659 8.49967H1.33325M7.99992 13.833C9.41441 13.833 10.771 13.2711 11.7712 12.2709C12.7713 11.2707 13.3333 9.91416 13.3333 8.49967M7.99992 13.833V15.1663M13.3333 8.49967C13.3333 7.08519 12.7713 5.72863 11.7712 4.72844C10.771 3.72824 9.41441 3.16634 7.99992 3.16634M13.3333 8.49967H14.6666M7.99992 3.16634V1.83301" stroke="#59656F" stroke-linecap="round" stroke-linejoin="round"/>
</svg>
