<svg width="48" height="48" viewBox="0 0 48 48" fill="none" xmlns="http://www.w3.org/2000/svg">
<path d="M23.9475 39.9623C32.7998 39.9623 39.976 32.7861 39.976 23.9338C39.976 15.0815 32.7998 7.90527 23.9475 7.90527C15.0952 7.90527 7.91895 15.0815 7.91895 23.9338C7.91895 32.7861 15.0952 39.9623 23.9475 39.9623Z" stroke="#2A2A29" stroke-miterlimit="10" stroke-linecap="round" stroke-linejoin="round"/>
<path d="M39.8846 22.21C44.0414 22.6494 46.6171 23.2595 46.6171 23.9339C46.6171 25.2728 36.4677 26.358 23.9477 26.358C11.4278 26.358 1.27832 25.2728 1.27832 23.934C1.27832 23.4413 2.65307 22.9829 5.01463 22.6003C5.16866 22.5754 5.32701 22.5507 5.48929 22.5265" stroke="#00B6DA" stroke-miterlimit="10" stroke-linecap="round" stroke-linejoin="round"/>
<path d="M32.1738 21.6738C34.1574 21.7564 36.0053 21.8681 37.6721 22.0039" stroke="#2A2A29" stroke-miterlimit="10" stroke-linecap="round" stroke-linejoin="round"/>
<path d="M23.9473 21.5098C25.991 21.5098 27.9716 21.5386 29.8551 21.5929" stroke="#2A2A29" stroke-miterlimit="10" stroke-linecap="round" stroke-linejoin="round"/>
<path d="M15.874 21.6674C17.6703 21.5942 19.5761 21.5447 21.5579 21.5225" stroke="#2A2A29" stroke-miterlimit="10" stroke-linecap="round" stroke-linejoin="round"/>
<path d="M8.01074 22.2099C9.58434 22.0436 11.3845 21.9017 13.3574 21.79" stroke="#2A2A29" stroke-miterlimit="10" stroke-linecap="round" stroke-linejoin="round"/>
<path d="M37.4724 32.54C37.4724 32.9464 31.4174 33.2758 23.9481 33.2758C16.4789 33.2758 10.4238 32.9464 10.4238 32.54" stroke="#2A2A29" stroke-miterlimit="10" stroke-linecap="round" stroke-linejoin="round"/>
<path d="M10.4238 15.433C10.4238 15.0266 16.4789 14.6973 23.9481 14.6973C31.4174 14.6973 37.4724 15.0267 37.4724 15.433" stroke="#2A2A29" stroke-miterlimit="10" stroke-linecap="round" stroke-linejoin="round"/>
<path d="M23.9481 39.9623C28.4914 39.9623 32.1744 32.7861 32.1744 23.9338C32.1744 15.0815 28.4914 7.90527 23.9481 7.90527C19.4048 7.90527 15.7217 15.0815 15.7217 23.9338C15.7217 32.7861 19.4048 39.9623 23.9481 39.9623Z" stroke="#2A2A29" stroke-miterlimit="10" stroke-linecap="round" stroke-linejoin="round"/>
<path d="M23.9473 7.90527V43.5634" stroke="#2A2A29" stroke-miterlimit="10" stroke-linecap="round" stroke-linejoin="round"/>
<path d="M15.8916 43.5635H32.0049" stroke="#00B6DA" stroke-miterlimit="10" stroke-linecap="round" stroke-linejoin="round"/>
</svg>
