<svg width="48" height="48" viewBox="0 0 48 48" fill="none" xmlns="http://www.w3.org/2000/svg">
<path d="M25.1125 26.3486C32.0285 26.6155 37.5641 29.4876 37.5641 31.7117C37.5641 34.0462 31.5631 34.9512 24.1605 34.9512C16.7578 34.9512 10.7568 34.0462 10.7568 31.7117C10.7568 29.7945 14.8043 27.3955 20.3515 26.5992" stroke="#2A2A29" stroke-miterlimit="10" stroke-linecap="round" stroke-linejoin="round"/>
<path d="M21.4834 16.8799L24.0942 18.0568" stroke="#00B6DA" stroke-miterlimit="10" stroke-linecap="round" stroke-linejoin="round"/>
<path d="M21.0801 19.8955L24.0395 19.6572" stroke="#00B6DA" stroke-miterlimit="10" stroke-linecap="round" stroke-linejoin="round"/>
<path d="M21.0369 29.0505C21.0369 29.0505 18.6072 16.0923 25.2021 11.1172" stroke="#2A2A29" stroke-miterlimit="10" stroke-linecap="round" stroke-linejoin="round"/>
<path d="M25.4155 29.0507C25.4155 29.0507 22.1464 20.4187 25.8944 11.5254" stroke="#2A2A29" stroke-miterlimit="10" stroke-linecap="round" stroke-linejoin="round"/>
<path d="M25.2021 11.1179C25.2021 11.1179 32.5006 10.1283 35.4227 19.3392" stroke="#2A2A29" stroke-miterlimit="10" stroke-linecap="round" stroke-linejoin="round"/>
<path d="M13.1895 5.87239C13.1895 5.87239 23.3668 4.04014 25.2022 11.118" stroke="#2A2A29" stroke-miterlimit="10" stroke-linecap="round" stroke-linejoin="round"/>
<path d="M35.6772 3.83929C30.555 1.9336 24.9947 4.66508 25.4644 11.0577" stroke="#2A2A29" stroke-miterlimit="10" stroke-linecap="round" stroke-linejoin="round"/>
<path d="M9.83008 9.33239C9.83008 9.33239 10.9108 6.06407 13.1889 5.87207" stroke="#2A2A29" stroke-miterlimit="10" stroke-linecap="round" stroke-linejoin="round"/>
<path d="M13.1895 8.88788L15.3687 5.81348" stroke="#2A2A29" stroke-miterlimit="10" stroke-linecap="round" stroke-linejoin="round"/>
<path d="M16.6504 8.67777L18.5653 5.87207" stroke="#2A2A29" stroke-miterlimit="10" stroke-linecap="round" stroke-linejoin="round"/>
<path d="M19.7969 8.67753L21.0792 6.74121" stroke="#2A2A29" stroke-miterlimit="10" stroke-linecap="round" stroke-linejoin="round"/>
<path d="M11.7725 19.2954L12.8162 15.9498C16.8482 8.60339 25.4716 11.0575 25.4716 11.0575C25.4716 11.0575 31.4959 2.86451 39.6269 12.4566" stroke="#2A2A29" stroke-miterlimit="10" stroke-linecap="round" stroke-linejoin="round"/>
<path d="M14.6343 17.8774L14.0352 14.1621" stroke="#2A2A29" stroke-miterlimit="10" stroke-linecap="round" stroke-linejoin="round"/>
<path d="M16.6509 16.0536L16.0518 12.5303" stroke="#2A2A29" stroke-miterlimit="10" stroke-linecap="round" stroke-linejoin="round"/>
<path d="M18.8589 15.2856L18.2598 11.5703" stroke="#2A2A29" stroke-miterlimit="10" stroke-linecap="round" stroke-linejoin="round"/>
<path d="M33.6929 16.0195L32.7012 19.2951" stroke="#2A2A29" stroke-miterlimit="10" stroke-linecap="round" stroke-linejoin="round"/>
<path d="M31.7729 13.8115L30.7812 17.0871" stroke="#2A2A29" stroke-miterlimit="10" stroke-linecap="round" stroke-linejoin="round"/>
<path d="M29.5649 12.1797L28.5732 15.4553" stroke="#2A2A29" stroke-miterlimit="10" stroke-linecap="round" stroke-linejoin="round"/>
<path d="M40.3697 15.7605L39.627 12.457" stroke="#2A2A29" stroke-miterlimit="10" stroke-linecap="round" stroke-linejoin="round"/>
<path d="M37.4111 13.812L37.5149 10.6328" stroke="#2A2A29" stroke-miterlimit="10" stroke-linecap="round" stroke-linejoin="round"/>
<path d="M34.9082 11.5648L35.1157 8.80859" stroke="#2A2A29" stroke-miterlimit="10" stroke-linecap="round" stroke-linejoin="round"/>
<path d="M32.1553 10.1867L32.3312 7.84863" stroke="#2A2A29" stroke-miterlimit="10" stroke-linecap="round" stroke-linejoin="round"/>
<path d="M38.2706 7.27442C38.2706 7.27442 37.2375 4.19416 36.0605 3.83887" stroke="#2A2A29" stroke-miterlimit="10" stroke-linecap="round" stroke-linejoin="round"/>
<path d="M34.8546 5.97652L33.7568 3.64746" stroke="#2A2A29" stroke-miterlimit="10" stroke-linecap="round" stroke-linejoin="round"/>
<path d="M31.741 5.43392L30.9727 3.64746" stroke="#2A2A29" stroke-miterlimit="10" stroke-linecap="round" stroke-linejoin="round"/>
<path d="M29.212 6.28414L28.5732 4.79883" stroke="#2A2A29" stroke-miterlimit="10" stroke-linecap="round" stroke-linejoin="round"/>
<path d="M20.7646 23.5977L23.8949 23.9173" stroke="#2A2A29" stroke-miterlimit="10" stroke-linecap="round" stroke-linejoin="round"/>
<path d="M20.8242 27.6442L24.6034 27.0674" stroke="#2A2A29" stroke-miterlimit="10" stroke-linecap="round" stroke-linejoin="round"/>
<path d="M39.2402 29.8891C39.2402 29.8891 41.6734 30.0563 42.8826 28.2178C42.8826 28.2178 44.2506 30.0754 46.7149 29.9043" stroke="#2A2A29" stroke-miterlimit="10" stroke-linecap="round" stroke-linejoin="round"/>
<path d="M19.9443 39.4887C19.9443 39.4887 22.3775 39.6559 23.5867 37.8174C23.5867 37.8174 24.9547 39.675 27.419 39.5039" stroke="#2A2A29" stroke-miterlimit="10" stroke-linecap="round" stroke-linejoin="round"/>
<path d="M1.41602 29.8891C1.41602 29.8891 3.84914 30.0563 5.05835 28.2178C5.05835 28.2178 6.42635 30.0754 8.89067 29.9043" stroke="#00B6DA" stroke-miterlimit="10" stroke-linecap="round" stroke-linejoin="round"/>
<path d="M2.66406 39.5844C2.66406 39.5844 5.09718 39.4635 6.3064 37.625C6.3064 37.625 7.47971 39.5995 9.3639 39.5995C11.2481 39.5995 12.4754 37.625 12.4754 37.625C12.4754 37.625 13.7949 39.6107 16.0794 39.6107" stroke="#00B6DA" stroke-miterlimit="10" stroke-linecap="round" stroke-linejoin="round"/>
<path d="M31.2725 39.5844C31.2725 39.5844 33.7056 39.4635 34.9148 37.625C34.9148 37.625 36.0881 39.5995 37.9723 39.5995C39.8565 39.5995 41.0838 37.625 41.0838 37.625C41.0838 37.625 42.4033 39.6107 44.6878 39.6107" stroke="#00B6DA" stroke-miterlimit="10" stroke-linecap="round" stroke-linejoin="round"/>
<path d="M22.0557 45.057C22.0557 45.057 24.4888 44.9362 25.698 43.0977C25.698 43.0977 26.8713 45.0722 28.7555 45.0722C30.6397 45.0722 31.867 43.0977 31.867 43.0977C31.867 43.0977 33.1865 45.0833 35.471 45.0833" stroke="#2A2A29" stroke-miterlimit="10" stroke-linecap="round" stroke-linejoin="round"/>
</svg>
