<svg width="48" height="48" viewBox="0 0 48 48" fill="none" xmlns="http://www.w3.org/2000/svg">
<path d="M14.8923 12.1699L20.4305 16.7587C21.1995 17.3959 21.3736 18.5061 20.8365 19.3481C20.2635 20.2464 19.0824 20.5301 18.1639 19.9902L12.3352 16.5638C12.3352 16.5638 11.7514 18.8271 8.35059 19.2008" stroke="#2A2A29" stroke-miterlimit="10" stroke-linecap="round" stroke-linejoin="round"/>
<path d="M29.2809 15.0843L26.2627 10.7382L20.0176 6.79586C18.8687 6.07052 17.4505 5.91218 16.1699 6.36602L7.96969 9.27218L2.37891 8.25171" stroke="#2A2A29" stroke-miterlimit="10" stroke-linecap="round" stroke-linejoin="round"/>
<path d="M19.7171 12.9902C19.7171 12.9902 35.8508 14.0325 45.6245 26.4972L36.8502 38.5465C36.8502 38.5465 22.3262 22.4331 5.99121 26.0504L11.4887 20.0835" stroke="#2A2A29" stroke-miterlimit="10" stroke-linecap="round" stroke-linejoin="round"/>
<path d="M34.0968 40.6385C24.5703 27.8529 5.99219 26.0508 5.99219 26.0508C5.99219 26.0508 22.1992 29.6078 30.9474 41.9754" stroke="#2A2A29" stroke-miterlimit="10" stroke-linecap="round" stroke-linejoin="round"/>
<path d="M2.37891 20.5127L9.46472 21.9939" stroke="#2A2A29" stroke-miterlimit="10" stroke-linecap="round" stroke-linejoin="round"/>
<path d="M35.3802 21.0469C35.3802 21.0469 38.6881 23.2892 40.1582 24.8329C40.1582 24.8329 39.8501 26.3428 41.4673 27.5189L38.02 32.2408C38.02 32.2408 36.6232 31.0723 34.8437 32.2197C34.8437 32.2197 32.0767 30.0518 29.2812 28.3612" stroke="#00B6DA" stroke-miterlimit="10" stroke-linecap="round" stroke-linejoin="round"/>
<path d="M27.5568 25.1369C29.2924 25.1369 30.6994 23.7299 30.6994 21.9943C30.6994 20.2586 29.2924 18.8516 27.5568 18.8516C25.8211 18.8516 24.4141 20.2586 24.4141 21.9943C24.4141 23.7299 25.8211 25.1369 27.5568 25.1369Z" stroke="#00B6DA" stroke-miterlimit="10" stroke-linecap="round" stroke-linejoin="round"/>
<path d="M34.8153 26.9773C35.1237 26.9773 35.3738 26.7273 35.3738 26.4188C35.3738 26.1104 35.1237 25.8604 34.8153 25.8604C34.5069 25.8604 34.2568 26.1104 34.2568 26.4188C34.2568 26.7273 34.5069 26.9773 34.8153 26.9773Z" stroke="#2A2A29" stroke-miterlimit="10" stroke-linecap="round" stroke-linejoin="round"/>
<path d="M14.0846 20.583L13.1514 21.7659C13.1514 21.7659 14.2462 21.7888 14.3261 23.0136C14.3261 23.0136 17.3083 23.4241 20.3554 24.4398" stroke="#00B6DA" stroke-miterlimit="10" stroke-linecap="round" stroke-linejoin="round"/>
<path d="M24.7389 16.6621C24.7389 16.6621 23.5787 16.3754 22.6797 16.2168" stroke="#00B6DA" stroke-miterlimit="10" stroke-linecap="round" stroke-linejoin="round"/>
</svg>
