<svg width="48" height="48" viewBox="0 0 48 48" fill="none" xmlns="http://www.w3.org/2000/svg">
<path d="M41.5366 23.6963C43.1302 24.5425 44.0376 25.5162 44.0376 26.5523C44.0376 29.81 35.0666 32.4509 24.0003 32.4509C12.9339 32.4509 3.96289 29.8099 3.96289 26.5522C3.96289 25.7399 4.52052 24.9661 5.52927 24.262" stroke="#2A2A29" stroke-miterlimit="10" stroke-linecap="round" stroke-linejoin="round"/>
<path d="M8.81143 30.407C8.13118 29.5029 7.61696 28.4505 7.32539 27.2838C6.15915 22.6169 8.99696 17.8881 13.6639 16.7219C18.3309 15.5556 23.0596 18.3934 24.2258 23.0604C25.135 26.6987 23.6106 30.3746 20.6833 32.3707" stroke="#2A2A29" stroke-miterlimit="10" stroke-linecap="round" stroke-linejoin="round"/>
<path d="M14.9854 20.9766L15.0947 21.415L15.542 21.3506C15.9584 21.2903 16.3772 21.299 16.7539 21.3848L16.6943 21.8955C16.4217 21.8331 15.9974 21.771 15.4629 21.8545L15.1475 21.9189C14.691 22.0331 14.339 22.2497 14.1279 22.5654C13.942 22.8437 13.8972 23.1519 13.9395 23.4268L13.9629 23.542C13.9977 23.6814 14.0545 23.8364 14.1641 23.9844C14.2746 24.1336 14.4183 24.2481 14.5889 24.3389C14.8283 24.4661 15.1468 24.5592 15.5605 24.6377L16.0068 24.7119L16.0098 24.7129C16.9703 24.8505 17.5007 25.1295 17.8076 25.4111C18.0349 25.6198 18.1677 25.8554 18.2559 26.1035L18.3311 26.3555C18.5533 27.2452 18.1448 28.136 17.2109 28.6299L16.8643 28.8135L16.96 29.1934L17.1729 30.0498L16.7354 30.1592L16.54 29.3789L16.4297 28.9355L15.9775 29.0068C15.4332 29.0922 14.8911 29.0585 14.4941 28.9404L14.5469 28.4092C15.0407 28.5447 15.5809 28.57 16.0918 28.4824L16.3428 28.4297C16.7734 28.3221 17.1519 28.1081 17.4023 27.7891C17.6284 27.501 17.7328 27.1468 17.6836 26.7764L17.6533 26.6172C17.5874 26.3535 17.4514 26.0545 17.1113 25.8105C16.8369 25.6138 16.4612 25.4758 15.9561 25.3857L15.7314 25.3506L15.7256 25.3496L15.2734 25.2812C14.8381 25.2034 14.4536 25.0935 14.1387 24.9219C13.7923 24.7331 13.5266 24.4676 13.377 24.0498L13.3193 23.8613C13.1055 23.0055 13.4574 22.1987 14.3867 21.7188L14.7383 21.5371L14.6426 21.1533L14.4404 20.3438L14.8037 20.2539L14.9854 20.9766Z" fill="#2A2A29" stroke="#00B6DA"/>
<path d="M26.1777 22.6695C28.912 20.0302 33.166 19.4077 36.6115 21.4159C39.6204 23.1697 41.1875 26.4491 40.9041 29.7029" stroke="#2A2A29" stroke-miterlimit="10" stroke-linecap="round" stroke-linejoin="round"/>
<path d="M21.4375 15.8245C24.1662 13.0878 28.4938 12.4177 31.9891 14.455C33.7896 15.5045 35.0739 17.1003 35.7543 18.91" stroke="#00B6DA" stroke-miterlimit="10" stroke-linecap="round" stroke-linejoin="round"/>
<path d="M3.96289 26.5527C3.96289 26.5527 6.3298 37.0147 11.7818 43.7426C12.0601 44.086 12.4233 44.3494 12.8338 44.513C14.3921 45.134 18.7042 46.6099 24.4877 46.6099C30.1159 46.6099 34.0777 45.0924 35.6107 44.3895C36.0629 44.1822 36.4442 43.8488 36.7124 43.43C38.1341 41.2098 42.9333 33.3341 44.0377 26.5528" stroke="#2A2A29" stroke-miterlimit="10" stroke-linecap="round" stroke-linejoin="round"/>
<path d="M29.085 30.4014C29.3866 30.9158 29.8392 31.366 30.3564 31.668C30.0776 31.6915 29.8109 31.7113 29.5645 31.7295C29.175 31.4281 28.8596 31.0701 28.6777 30.7441L29.085 30.4014ZM34.9629 24.7402L34.5879 25.3848L34.3604 25.7754L34.7256 26.041C35.0659 26.2884 35.3593 26.5875 35.5693 26.9121L35.1699 27.2354C35.0182 27.0004 34.7582 26.6598 34.3174 26.3467L34.0469 26.1729C33.6402 25.9358 33.2369 25.8459 32.8652 25.9248C32.5378 25.9943 32.2905 26.1828 32.1289 26.4092L32.0654 26.5078C31.9931 26.632 31.9252 26.7833 31.9004 26.9658C31.8755 27.1496 31.8983 27.3318 31.957 27.5156C32.0397 27.774 32.2036 28.063 32.4453 28.4082L32.7129 28.7734L32.7139 28.7754C33.2932 29.5282 33.4822 30.09 33.5117 30.5029C33.5341 30.8174 33.4658 31.0824 33.3564 31.3242C33.0672 31.3703 32.7599 31.4136 32.4443 31.4531C32.4529 31.4423 32.4634 31.433 32.4717 31.4219L32.5615 31.2861C32.6984 31.0513 32.8106 30.7422 32.7373 30.3301C32.6782 29.9977 32.5049 29.6367 32.2061 29.2197L32.0693 29.0371L32.0664 29.0332L31.791 28.668C31.5335 28.3082 31.3333 27.9619 31.2275 27.6191C31.1112 27.242 31.1063 26.8657 31.291 26.4619L31.3818 26.2871C31.8261 25.525 32.6411 25.1931 33.6416 25.498L34.0205 25.6143L34.2197 25.2715L34.6387 24.5508L34.9629 24.7402Z" fill="#2A2A29" stroke="#00B6DA"/>
<path d="M3.96289 26.5523V21.3528C3.96289 10.2865 12.9339 1.31543 24.0003 1.31543C35.0666 1.31543 44.0376 10.2865 44.0376 21.3528V26.5523" stroke="#2A2A29" stroke-miterlimit="10" stroke-linecap="round" stroke-linejoin="round"/>
<path d="M10.8105 33.0537C10.8105 33.0537 12.946 41.9617 15.0814 45.2793" stroke="#2A2A29" stroke-miterlimit="10" stroke-linecap="round" stroke-linejoin="round"/>
<path d="M24.4873 35.7012V42.5041" stroke="#2A2A29" stroke-miterlimit="10" stroke-linecap="round" stroke-linejoin="round"/>
<path d="M15.2598 31.8877C15.2598 31.8877 16.073 38.4542 17.7072 43.6606" stroke="#2A2A29" stroke-miterlimit="10" stroke-linecap="round" stroke-linejoin="round"/>
<path d="M20.3604 35.7012L20.8675 40.86" stroke="#2A2A29" stroke-miterlimit="10" stroke-linecap="round" stroke-linejoin="round"/>
<path d="M6.05957 33.2412C6.05957 33.2412 10.3144 35.3804 17.4837 35.7007" stroke="#2A2A29" stroke-miterlimit="10" stroke-linecap="round" stroke-linejoin="round"/>
<path d="M7.91699 37.4219C7.91699 37.4219 15.2599 40.0894 26.8579 39.4873" stroke="#2A2A29" stroke-miterlimit="10" stroke-linecap="round" stroke-linejoin="round"/>
<path d="M9.98145 41.2305C9.98145 41.2305 13.1627 42.4765 21.2386 42.7941" stroke="#2A2A29" stroke-miterlimit="10" stroke-linecap="round" stroke-linejoin="round"/>
<path d="M37.098 33.0537C37.098 33.0537 36.2254 36.6936 35.0381 40.1864" stroke="#2A2A29" stroke-miterlimit="10" stroke-linecap="round" stroke-linejoin="round"/>
<path d="M41.8499 33.2412C41.8499 33.2412 37.595 35.3804 30.4258 35.7007" stroke="#2A2A29" stroke-miterlimit="10" stroke-linecap="round" stroke-linejoin="round"/>
<path d="M39.9916 37.4219C39.9916 37.4219 37.3859 38.3685 32.8271 39.0066" stroke="#2A2A29" stroke-miterlimit="10" stroke-linecap="round" stroke-linejoin="round"/>
<path d="M37.9276 41.2305C37.9276 41.2305 35.9071 42.0219 30.999 42.504" stroke="#2A2A29" stroke-miterlimit="10" stroke-linecap="round" stroke-linejoin="round"/>
</svg>
