<svg width="48" height="48" viewBox="0 0 48 48" fill="none" xmlns="http://www.w3.org/2000/svg">
<path d="M16.4111 8.99902L21.8115 12.3814V22.3158H46.2821L46.2897 22.036C46.3147 21.108 45.9362 20.2148 45.252 19.5873L37.3936 12.3814L37.8245 8.99902H16.4111Z" stroke="#2A2A29" stroke-miterlimit="10" stroke-linecap="round" stroke-linejoin="round"/>
<path d="M16.3561 8.99902L16.9882 12.3814L6.28243 19.6275C5.37187 20.2184 4.82227 21.2302 4.82227 22.3158H21.7614" stroke="#2A2A29" stroke-miterlimit="10" stroke-linecap="round" stroke-linejoin="round"/>
<path d="M42.7682 22.6562V33.3602H8.78418V22.6562" stroke="#2A2A29" stroke-miterlimit="10" stroke-linecap="round" stroke-linejoin="round"/>
<path d="M25.1045 22.6562V32.7363" stroke="#2A2A29" stroke-miterlimit="10" stroke-linecap="round" stroke-linejoin="round"/>
<path d="M3.4082 29.2324H22.4162V33.3604H3.4082V29.2324Z" stroke="#2A2A29" stroke-miterlimit="10" stroke-linecap="round" stroke-linejoin="round"/>
<path d="M6 29.5684V32.7364" stroke="#2A2A29" stroke-miterlimit="10" stroke-linecap="round" stroke-linejoin="round"/>
<path d="M8.78418 29.5684V32.7364" stroke="#2A2A29" stroke-miterlimit="10" stroke-linecap="round" stroke-linejoin="round"/>
<path d="M11.4727 29.5684V32.7364" stroke="#2A2A29" stroke-miterlimit="10" stroke-linecap="round" stroke-linejoin="round"/>
<path d="M14.2559 29.5684V32.7364" stroke="#2A2A29" stroke-miterlimit="10" stroke-linecap="round" stroke-linejoin="round"/>
<path d="M16.9443 29.5684V32.7364" stroke="#2A2A29" stroke-miterlimit="10" stroke-linecap="round" stroke-linejoin="round"/>
<path d="M19.7285 29.5684V32.7364" stroke="#2A2A29" stroke-miterlimit="10" stroke-linecap="round" stroke-linejoin="round"/>
<path d="M6.86426 38.0159V33.5039" stroke="#2A2A29" stroke-miterlimit="10" stroke-linecap="round" stroke-linejoin="round"/>
<path d="M20.4961 38.0159V33.5039" stroke="#2A2A29" stroke-miterlimit="10" stroke-linecap="round" stroke-linejoin="round"/>
<path d="M40.752 38.0159V33.5039" stroke="#2A2A29" stroke-miterlimit="10" stroke-linecap="round" stroke-linejoin="round"/>
<path d="M23.6641 38.0159V33.5039" stroke="#2A2A29" stroke-miterlimit="10" stroke-linecap="round" stroke-linejoin="round"/>
<path d="M2.20801 38.1602H45.216" stroke="#00B6DA" stroke-miterlimit="10" stroke-linecap="round" stroke-linejoin="round"/>
<path d="M4.89648 42.1924H8.83248" stroke="#2A2A29" stroke-miterlimit="10" stroke-linecap="round" stroke-linejoin="round"/>
<path d="M24.2881 42.1924H28.2241" stroke="#2A2A29" stroke-miterlimit="10" stroke-linecap="round" stroke-linejoin="round"/>
<path d="M31.4883 42.1924H42.0483" stroke="#00B6DA" stroke-miterlimit="10" stroke-linecap="round" stroke-linejoin="round"/>
<path d="M11.8076 42.1924H12.4796" stroke="#2A2A29" stroke-miterlimit="10" stroke-linecap="round" stroke-linejoin="round"/>
<path d="M16.2236 42.1924H21.3116" stroke="#2A2A29" stroke-miterlimit="10" stroke-linecap="round" stroke-linejoin="round"/>
<path d="M9.69629 45.6484H12.6723" stroke="#00B6DA" stroke-miterlimit="10" stroke-linecap="round" stroke-linejoin="round"/>
<path d="M22.2725 45.6484H25.1525" stroke="#2A2A29" stroke-miterlimit="10" stroke-linecap="round" stroke-linejoin="round"/>
<path d="M37.2483 45.6484H30.5283" stroke="#2A2A29" stroke-miterlimit="10" stroke-linecap="round" stroke-linejoin="round"/>
<path d="M28.0321 45.6484H27.4561" stroke="#2A2A29" stroke-miterlimit="10" stroke-linecap="round" stroke-linejoin="round"/>
<path d="M14.8799 45.6484H15.2639" stroke="#2A2A29" stroke-miterlimit="10" stroke-linecap="round" stroke-linejoin="round"/>
<path d="M18.1436 45.6484H19.5836" stroke="#2A2A29" stroke-miterlimit="10" stroke-linecap="round" stroke-linejoin="round"/>
<path d="M8.40039 7.2959V18.2399" stroke="#00B6DA" stroke-miterlimit="10" stroke-linecap="round" stroke-linejoin="round"/>
<path d="M12.9088 9.20406L8.37873 7.2998L1.37207 8.48617" stroke="#00B6DA" stroke-miterlimit="10" stroke-linecap="round" stroke-linejoin="round"/>
<path d="M5.81738 11.1226L8.37885 7.29892L5.94036 2.48145" stroke="#00B6DA" stroke-miterlimit="10" stroke-linecap="round" stroke-linejoin="round"/>
<path d="M11.0959 1.89453L8.37891 7.29933L11.5527 12.1402" stroke="#00B6DA" stroke-miterlimit="10" stroke-linecap="round" stroke-linejoin="round"/>
<path d="M12.0743 5.41832L8.37844 7.29916L3.83984 4.98047" stroke="#00B6DA" stroke-miterlimit="10" stroke-linecap="round" stroke-linejoin="round"/>
<path d="M29.5703 26.7139H32.135V29.2785H29.5703V26.7139Z" stroke="#2A2A29" stroke-miterlimit="10" stroke-linecap="round" stroke-linejoin="round"/>
<path d="M35.6396 26.7139H38.2043V29.2785H35.6396V26.7139Z" stroke="#2A2A29" stroke-miterlimit="10" stroke-linecap="round" stroke-linejoin="round"/>
<path d="M21.792 12.3359H27.936" stroke="#2A2A29" stroke-miterlimit="10" stroke-linecap="round" stroke-linejoin="round"/>
<path d="M32.7363 12.3359H37.5363" stroke="#2A2A29" stroke-miterlimit="10" stroke-linecap="round" stroke-linejoin="round"/>
</svg>
