<svg width="14" height="14" viewBox="0 0 14 14" fill="none" xmlns="http://www.w3.org/2000/svg">
<path d="M8.75 4.66667H8.75583M1.75 3.5C1.75 3.03587 1.93437 2.59075 2.26256 2.26256C2.59075 1.93437 3.03587 1.75 3.5 1.75H10.5C10.9641 1.75 11.4092 1.93437 11.7374 2.26256C12.0656 2.59075 12.25 3.03587 12.25 3.5V10.5C12.25 10.9641 12.0656 11.4092 11.7374 11.7374C11.4092 12.0656 10.9641 12.25 10.5 12.25H3.5C3.03587 12.25 2.59075 12.0656 2.26256 11.7374C1.93437 11.4092 1.75 10.9641 1.75 10.5V3.5Z" stroke="white" stroke-linecap="round" stroke-linejoin="round"/>
<path d="M1.75 9.33323L4.66667 6.41657C5.208 5.89565 5.87533 5.89565 6.41667 6.41657L9.33333 9.33323" stroke="white" stroke-linecap="round" stroke-linejoin="round"/>
<path d="M8.16663 8.16689L8.74996 7.58356C9.29129 7.06264 9.95863 7.06264 10.5 7.58356L12.25 9.33356" stroke="white" stroke-linecap="round" stroke-linejoin="round"/>
</svg>
