<svg width="16" height="16" viewBox="0 0 16 16" fill="none" xmlns="http://www.w3.org/2000/svg">
<path d="M8 8.19434V11.2815H8.9375V9.87524C8.9375 9.61621 9.14722 9.40649 9.40625 9.40649C9.66528 9.40649 9.875 9.61621 9.875 9.87524V11.2815H10.8125V8.19434L9.40625 6.78809L8 8.19434ZM9.875 8.00024C9.875 8.25916 9.66516 8.46899 9.40625 8.46899C9.14734 8.46899 8.9375 8.25916 8.9375 8.00024C8.9375 7.74133 9.14734 7.53149 9.40625 7.53149C9.66516 7.53149 9.875 7.74133 9.875 8.00024Z" fill="white"/>
<path d="M14.0938 2.84375C14.3528 2.84375 14.5625 2.63403 14.5625 2.375C14.5625 2.11597 14.3528 1.90625 14.0938 1.90625H3.3125V0.46875C3.3125 0.209717 3.10278 0 2.84375 0H1.90625C1.64722 0 1.4375 0.209717 1.4375 0.46875V15.5312C1.4375 15.7903 1.64722 16 1.90625 16H2.84375C3.10278 16 3.3125 15.7903 3.3125 15.5312V2.84375H6.125V3.78125H5.65625C4.88086 3.78125 4.25 4.41211 4.25 5.1875V12.6875C4.25 13.4629 4.88086 14.0938 5.65625 14.0938H13.1562C13.9316 14.0938 14.5625 13.4629 14.5625 12.6875V5.1875C14.5625 4.41211 13.9316 3.78125 13.1562 3.78125H12.6875V2.84375H14.0938ZM7.0625 2.84375H11.75V3.78125H7.0625V2.84375ZM12.5502 9.26892C12.3671 9.45203 12.0704 9.45203 11.8873 9.26892L11.75 9.13159V11.75C11.75 12.009 11.5403 12.2188 11.2812 12.2188H7.53125C7.27222 12.2188 7.0625 12.009 7.0625 11.75V9.13159L6.92517 9.26892C6.74207 9.45203 6.44543 9.45203 6.26233 9.26892C6.07922 9.08582 6.07922 8.78918 6.26233 8.60608C6.36877 8.49963 9.24268 5.62573 9.07483 5.79358C9.25793 5.61047 9.55457 5.61047 9.73767 5.79358L12.5502 8.60608C12.7333 8.78918 12.7333 9.08582 12.5502 9.26892Z" fill="white"/>
</svg>
