<svg width="16" height="16" viewBox="0 0 16 16" fill="none" xmlns="http://www.w3.org/2000/svg">
<g clip-path="url(#clip0_224_2925)">
<path d="M3.40763 4.32436C3.36887 4.31152 3.33023 4.31152 3.29159 4.31152C3.11112 4.31152 2.95658 4.42756 2.90498 4.6079C2.87918 4.71098 2.89214 4.81418 2.94361 4.90428C2.99521 4.99452 3.08545 5.05896 3.18852 5.09759C3.40763 5.16203 3.62661 5.03316 3.69105 4.82701C3.71685 4.72394 3.70401 4.62087 3.65241 4.53063C3.60094 4.42756 3.5107 4.36312 3.40763 4.32436Z" fill="#2D2D2D"/>
<path d="M5.58546 6.20586C5.94628 6.20586 6.29426 6.11562 6.6036 5.93515C6.73247 5.85788 6.88714 5.89652 6.96442 6.02539C7.04169 6.15426 7.00305 6.30893 6.87418 6.3862C6.48757 6.61828 6.03651 6.73418 5.58546 6.73418C5.50819 6.73418 5.43079 6.73418 5.35352 6.72135" fill="#2D2D2D"/>
<path d="M4.36116 5.79345C4.6963 6.0512 5.10859 6.1929 5.53397 6.20587C5.83035 4.91715 5.04415 3.60263 3.7426 3.24181C3.61372 3.20317 3.48485 3.19021 3.36882 3.16441L3.7942 3.34488C3.7168 3.49955 3.66532 3.66706 3.62656 3.84753C3.84567 3.92481 4.02614 4.06651 4.14205 4.27279C4.25809 4.49189 4.29672 4.73667 4.23229 4.96862C4.11638 5.38104 3.7426 5.63878 3.33018 5.63878C3.25291 5.63878 3.16267 5.62594 3.07244 5.60014C2.82765 5.53571 2.63435 5.38104 2.50547 5.16193C2.38944 4.94295 2.3508 4.69804 2.41524 4.46609C2.50547 4.13095 2.77606 3.89901 3.0854 3.82173C3.12404 3.58979 3.18847 3.37068 3.29154 3.15157C2.77606 3.09997 2.2734 3.20317 1.80951 3.46092C1.21675 3.79593 0.791374 4.32426 0.598066 4.98158C0.301686 5.97392 0.623866 7.0049 1.3971 7.62346C1.43574 7.6621 1.4487 7.7137 1.43574 7.75233L0.920247 9.72405C0.920247 9.76269 0.920247 9.78849 0.933209 9.81429L1.22959 10.4844C1.25539 10.5489 1.22959 10.6133 1.17799 10.652L0.688302 10.9741C0.636829 11.0128 0.611029 11.0772 0.636829 11.1416L0.88161 11.6571C0.90741 11.7216 0.894573 11.786 0.830137 11.8246L0.353285 12.134C0.301686 12.1726 0.275886 12.2371 0.301686 12.3015L0.546593 12.817C0.572393 12.8814 0.546593 12.9587 0.494994 12.9845L0.0697409 13.2164C0.00530479 13.2552 -0.0204948 13.3325 0.0181417 13.3969L0.494994 14.2604C0.507956 14.2862 0.546593 14.3118 0.572393 14.3248H0.611029C0.636829 14.3248 0.662502 14.3248 0.675465 14.3118L1.66781 13.7319C1.69348 13.7191 1.71928 13.6933 1.73224 13.6547L3.26574 8.38373C3.27871 8.33226 3.31734 8.29362 3.36882 8.29362C4.19365 8.17759 4.95404 7.55902 5.3277 6.73419C4.85085 6.69556 4.38696 6.51508 4.00034 6.2187C3.88431 6.12847 3.85863 5.96096 3.94874 5.84505C4.07761 5.72902 4.24525 5.70322 4.36116 5.79345Z" fill="#2D2D2D"/>
<path d="M3.27881 3.13871C3.6911 2.28807 4.58037 1.69531 5.58554 1.69531C6.77119 1.69531 7.81501 2.53298 8.07275 3.66703C8.09855 3.80874 8.00832 3.95057 7.86661 3.97637C7.7249 4.00205 7.58306 3.91194 7.54443 3.7701C7.33828 2.868 6.51345 2.2108 5.57271 2.2108C4.78651 2.2108 4.09068 2.66185 3.75553 3.33201" fill="#2D2D2D"/>
<path d="M15.9211 8.57678L11.3977 4.10502C11.2945 4.00182 11.0111 3.76987 10.676 3.75704L7.75055 3.48633C7.73771 3.48633 7.73771 3.48633 7.72488 3.48633H7.66044C7.3511 3.48633 7.09335 3.60236 6.86141 3.83431C6.6165 4.07922 6.51343 4.33696 6.51343 4.69778V4.72358L6.77117 7.6232C6.77117 7.95822 7.01608 8.22892 7.11915 8.332L11.6425 12.8039C11.6941 12.8554 11.7585 12.8812 11.8358 12.8812C11.9132 12.8812 11.9777 12.8554 12.0291 12.8039L15.9339 8.95056C16.0242 8.84748 16.0242 8.67998 15.9211 8.57678ZM9.82547 8.26756C9.76103 8.26756 9.68363 8.24176 9.63216 8.19016C9.52909 8.08709 9.52909 7.91958 9.63216 7.81651L10.9209 6.54062C11.024 6.43755 11.1915 6.43755 11.2945 6.54062C11.3977 6.6437 11.3977 6.81133 11.2945 6.9144L10.0058 8.19016C9.95434 8.24176 9.8899 8.26756 9.82547 8.26756ZM12.8024 8.39643L11.5136 9.67219C11.4622 9.72379 11.3977 9.74959 11.3203 9.74959C11.2431 9.74959 11.1786 9.72379 11.127 9.67219C11.024 9.56912 11.024 9.40161 11.127 9.29854L12.4157 8.02265C12.5188 7.91958 12.6865 7.91958 12.7895 8.02265C12.9054 8.12572 12.9054 8.29336 12.8024 8.39643Z" fill="#2D2D2D"/>
</g>
<defs>
<clipPath id="clip0_224_2925">
<rect width="16" height="16" fill="white"/>
</clipPath>
</defs>
</svg>
