<svg width="16" height="17" viewBox="0 0 16 17" fill="none" xmlns="http://www.w3.org/2000/svg">
<path d="M8.00008 3.16699V13.8337M2.66675 10.5003H8.00008M8.00008 8.50033H13.3334M10.6667 8.50033V13.8337M10.6667 11.167H13.3334M2.66675 4.50033C2.66675 4.1467 2.80722 3.80756 3.05727 3.55752C3.30732 3.30747 3.64646 3.16699 4.00008 3.16699H12.0001C12.3537 3.16699 12.6928 3.30747 12.9429 3.55752C13.1929 3.80756 13.3334 4.1467 13.3334 4.50033V12.5003C13.3334 12.8539 13.1929 13.1931 12.9429 13.4431C12.6928 13.6932 12.3537 13.8337 12.0001 13.8337H4.00008C3.64646 13.8337 3.30732 13.6932 3.05727 13.4431C2.80722 13.1931 2.66675 12.8539 2.66675 12.5003V4.50033Z" stroke="#59656F" stroke-linecap="round" stroke-linejoin="round"/>
</svg>
