<svg width="16" height="17" viewBox="0 0 16 17" fill="none" xmlns="http://www.w3.org/2000/svg">
<path d="M11.3334 3.83301H12.6667C12.8436 3.83301 13.0131 3.90325 13.1382 4.02827C13.2632 4.15329 13.3334 4.32286 13.3334 4.49967V5.16634C13.3334 5.34315 13.2632 5.51272 13.1382 5.63775C13.0131 5.76277 12.8436 5.83301 12.6667 5.83301H12.0001C11.8233 5.83301 11.6537 5.90325 11.5287 6.02827C11.4037 6.15329 11.3334 6.32286 11.3334 6.49967V7.16634C11.3334 7.34315 11.4037 7.51272 11.5287 7.63775C11.6537 7.76277 11.8233 7.83301 12.0001 7.83301H13.3334M2.66675 8.49967V12.4997M2.66675 9.83301C2.66675 9.47939 2.80722 9.14025 3.05727 8.8902C3.30732 8.64015 3.64646 8.49967 4.00008 8.49967H4.33341C4.77544 8.49967 5.19937 8.67527 5.51193 8.98783C5.82449 9.30039 6.00008 9.72431 6.00008 10.1663M6.00008 10.1663V12.4997M6.00008 10.1663V10.833M6.00008 10.1663C6.00008 9.72431 6.17568 9.30039 6.48824 8.98783C6.8008 8.67527 7.22472 8.49967 7.66675 8.49967C8.10878 8.49967 8.5327 8.67527 8.84526 8.98783C9.15782 9.30039 9.33341 9.72431 9.33341 10.1663V12.4997" stroke="#59656F" stroke-linecap="round" stroke-linejoin="round"/>
</svg>
