<svg width="22" height="22" viewBox="0 0 22 22" fill="none" xmlns="http://www.w3.org/2000/svg">
<path d="M10.9999 1.8335C5.93992 1.8335 1.83325 5.94016 1.83325 11.0002C1.83325 16.0602 5.93992 20.1668 10.9999 20.1668C16.0599 20.1668 20.1666 16.0602 20.1666 11.0002C20.1666 5.94016 16.0599 1.8335 10.9999 1.8335ZM15.2533 8.06683C15.1158 9.51516 14.5199 13.0352 14.2174 14.6577C14.0891 15.3452 13.8324 15.5743 13.5941 15.6018C13.0624 15.6477 12.6591 15.2535 12.1458 14.9143C11.3391 14.3827 10.8808 14.0527 10.1016 13.5393C9.19409 12.9435 9.78075 12.6135 10.3033 12.0818C10.4408 11.9443 12.7874 9.8085 12.8333 9.616C12.8396 9.58684 12.8388 9.55657 12.8308 9.52782C12.8228 9.49906 12.8079 9.47269 12.7874 9.451C12.7324 9.40516 12.6591 9.4235 12.5949 9.43266C12.5124 9.451 11.2291 10.3035 8.72659 11.9902C8.35992 12.2377 8.02992 12.366 7.73658 12.3568C7.40658 12.3477 6.78325 12.1735 6.31575 12.0177C5.73825 11.8343 5.28909 11.7335 5.32575 11.4127C5.34408 11.2477 5.57325 11.0827 6.00409 10.9085C8.68075 9.74433 10.4591 8.97433 11.3483 8.60766C13.8966 7.54433 14.4191 7.361 14.7674 7.361C14.8408 7.361 15.0149 7.37933 15.1249 7.471C15.2166 7.54433 15.2441 7.64516 15.2533 7.7185C15.2441 7.7735 15.2624 7.9385 15.2533 8.06683Z" fill="#59656F"/>
</svg>
