<svg width="16" height="16" viewBox="0 0 16 16" fill="none" xmlns="http://www.w3.org/2000/svg">
<path d="M7.99992 1.3335C4.31992 1.3335 1.33325 4.32016 1.33325 8.00016C1.33325 11.6802 4.31992 14.6668 7.99992 14.6668C11.6799 14.6668 14.6666 11.6802 14.6666 8.00016C14.6666 4.32016 11.6799 1.3335 7.99992 1.3335ZM11.0933 5.86683C10.9933 6.92016 10.5599 9.48016 10.3399 10.6602C10.2466 11.1602 10.0599 11.3268 9.88658 11.3468C9.49992 11.3802 9.20658 11.0935 8.83325 10.8468C8.24658 10.4602 7.91325 10.2202 7.34659 9.84683C6.68659 9.4135 7.11325 9.1735 7.49325 8.78683C7.59325 8.68683 9.29992 7.1335 9.33325 6.9935C9.33788 6.97229 9.33727 6.95028 9.33146 6.92936C9.32565 6.90845 9.31482 6.88927 9.29992 6.8735C9.25992 6.84016 9.20658 6.8535 9.15992 6.86016C9.09992 6.8735 8.16658 7.4935 6.34659 8.72016C6.07992 8.90016 5.83992 8.9935 5.62658 8.98683C5.38658 8.98016 4.93325 8.8535 4.59325 8.74016C4.17325 8.60683 3.84659 8.5335 3.87325 8.30016C3.88658 8.18016 4.05325 8.06016 4.36659 7.9335C6.31325 7.08683 7.60659 6.52683 8.25325 6.26016C10.1066 5.48683 10.4866 5.3535 10.7399 5.3535C10.7933 5.3535 10.9199 5.36683 10.9999 5.4335C11.0666 5.48683 11.0866 5.56016 11.0933 5.6135C11.0866 5.6535 11.0999 5.7735 11.0933 5.86683Z" fill="#59656F"/>
</svg>
