<svg width="16" height="17" viewBox="0 0 16 17" fill="none" xmlns="http://www.w3.org/2000/svg">
<path d="M11.702 11.6666C10.7643 10.729 9.49267 10.2023 8.16668 10.2023C6.8407 10.2023 5.56901 10.729 4.63135 11.6666M12 3.03589C11.0813 2.50548 9.98951 2.36174 8.96482 2.63629C7.94013 2.91085 7.06646 3.5812 6.53601 4.49989L13.464 8.49989C13.9944 7.58117 14.1382 6.48939 13.8636 5.46469C13.5891 4.44 12.9187 3.56634 12 3.03589Z" stroke="#59656F" stroke-linecap="round" stroke-linejoin="round"/>
<path d="M11.1547 7.16652C12.26 5.25319 12.638 3.40386 12 3.03586C11.362 2.66786 9.95 3.91986 8.84533 5.83319M10 6.49986L8 9.96386M2 13.3332C2.20753 13.23 2.435 13.1731 2.66667 13.1665C2.92633 13.1611 3.18342 13.2189 3.41572 13.3351C3.64802 13.4512 3.84855 13.6222 4 13.8332C4.15145 14.0442 4.35198 14.2151 4.58428 14.3313C4.81658 14.4474 5.07367 14.5053 5.33333 14.4999C5.593 14.5053 5.85008 14.4474 6.08238 14.3313C6.31469 14.2151 6.51522 14.0442 6.66667 13.8332C6.81811 13.6222 7.01865 13.4512 7.25095 13.3351C7.48325 13.2189 7.74034 13.1611 8 13.1665C8.25966 13.1611 8.51675 13.2189 8.74905 13.3351C8.98135 13.4512 9.18189 13.6222 9.33333 13.8332C9.48478 14.0442 9.68531 14.2151 9.91762 14.3313C10.1499 14.4474 10.407 14.5053 10.6667 14.4999C10.9263 14.5053 11.1834 14.4474 11.4157 14.3313C11.648 14.2151 11.8486 14.0442 12 13.8332C12.1514 13.6222 12.352 13.4512 12.5843 13.3351C12.8166 13.2189 13.0737 13.1611 13.3333 13.1665C13.565 13.1731 13.7925 13.23 14 13.3332" stroke="#59656F" stroke-linecap="round" stroke-linejoin="round"/>
</svg>
