<svg width="23" height="22" viewBox="0 0 23 22" fill="none" xmlns="http://www.w3.org/2000/svg">
<path fill-rule="evenodd" clip-rule="evenodd" d="M15.7863 2.40831C12.9023 1.76364 9.91155 1.76364 7.02756 2.40831L6.71681 2.47706C5.90535 2.65795 5.16002 3.0605 4.5638 3.63989C3.96757 4.21928 3.54385 4.95278 3.33981 5.75873C2.61004 8.63953 2.61004 11.6568 3.33981 14.5376C3.53442 15.3063 3.92902 16.0097 4.48351 16.5764C5.038 17.1431 5.73262 17.553 6.49681 17.7643L6.92306 20.309C6.93666 20.3898 6.97168 20.4655 7.02447 20.5281C7.07726 20.5908 7.14588 20.6382 7.2232 20.6653C7.30051 20.6925 7.38369 20.6984 7.46407 20.6825C7.54445 20.6665 7.61909 20.6294 7.68022 20.5748L10.1836 18.3354C12.0629 18.4488 13.9487 18.2986 15.7863 17.889L16.098 17.8202C16.9094 17.6393 17.6548 17.2368 18.251 16.6574C18.8472 16.078 19.2709 15.3445 19.475 14.5386C20.2047 11.6578 20.2047 8.64045 19.475 5.75964C19.2709 4.95358 18.847 4.22 18.2506 3.6406C17.6542 3.06119 16.9087 2.65871 16.0971 2.47798L15.7863 2.40831ZM7.80122 5.68448C7.63085 5.65953 7.45708 5.69383 7.30897 5.78164H7.29614C6.95239 5.98331 6.64256 6.23723 6.37856 6.53606C6.15856 6.78998 6.03939 7.04664 6.00822 7.29414C5.98989 7.44081 6.00272 7.58931 6.04581 7.72956L6.06231 7.73873C6.30981 8.46564 6.63247 9.16506 7.02664 9.82323C7.53511 10.7475 8.16054 11.6025 8.88747 12.367L8.90947 12.3981L8.94431 12.4238L8.96539 12.4486L8.99106 12.4706C9.75829 13.1996 10.6152 13.828 11.5412 14.3406C12.6 14.9171 13.2426 15.1894 13.6285 15.3031V15.3086C13.7412 15.3434 13.8439 15.359 13.9475 15.359C14.2763 15.3354 14.5876 15.2017 14.8311 14.9795C15.1291 14.7155 15.3811 14.4047 15.5773 14.0591V14.0527C15.7616 13.7044 15.6992 13.3762 15.4334 13.1535C14.8999 12.6864 14.3224 12.2719 13.7091 11.916C13.2985 11.6932 12.8814 11.828 12.7127 12.0535L12.3525 12.5081C12.1673 12.7336 11.8318 12.7025 11.8318 12.7025L11.8226 12.708C9.31922 12.0691 8.65097 9.53448 8.65097 9.53448C8.65097 9.53448 8.61981 9.18981 8.85172 9.01381L9.30272 8.65081C9.51906 8.47481 9.66939 8.05864 9.43747 7.64798C9.08233 7.03512 8.66883 6.45799 8.20272 5.92464C8.10077 5.7994 7.95798 5.71406 7.79939 5.68356M12.0307 4.58264C11.9092 4.58264 11.7926 4.63093 11.7066 4.71689C11.6207 4.80284 11.5724 4.91942 11.5724 5.04098C11.5724 5.16253 11.6207 5.27911 11.7066 5.36507C11.7926 5.45102 11.9092 5.49931 12.0307 5.49931C13.1903 5.49931 14.1528 5.87789 14.9146 6.60389C15.306 7.00081 15.6112 7.47106 15.8111 7.98623C16.0118 8.50231 16.1035 9.05323 16.0796 9.60506C16.0771 9.66525 16.0865 9.72535 16.1072 9.78192C16.1279 9.8385 16.1595 9.89044 16.2003 9.93479C16.2826 10.0244 16.3972 10.0775 16.5187 10.0826C16.6403 10.0877 16.7589 10.0444 16.8485 9.96201C16.938 9.87967 16.9912 9.76512 16.9963 9.64356C17.0237 8.96482 16.911 8.28772 16.6654 7.65439C16.4186 7.01785 16.0429 6.43922 15.5617 5.95489L15.5526 5.94573C14.6075 5.04281 13.4112 4.58264 12.0307 4.58264ZM11.9996 6.08964C11.878 6.08964 11.7614 6.13793 11.6755 6.22389C11.5895 6.30984 11.5412 6.42642 11.5412 6.54798C11.5412 6.66953 11.5895 6.78611 11.6755 6.87207C11.7614 6.95802 11.878 7.00631 11.9996 7.00631H12.0151C12.8511 7.06589 13.4598 7.34456 13.8861 7.80198C14.3233 8.27314 14.5497 8.85889 14.5323 9.58306C14.5295 9.70462 14.5751 9.82231 14.6591 9.91024C14.7431 9.99817 14.8585 10.0491 14.9801 10.0519C15.1017 10.0547 15.2193 10.0091 15.3073 9.92515C15.3952 9.84117 15.4462 9.7257 15.449 9.60414C15.471 8.65356 15.1648 7.83314 14.558 7.17864V7.17681C13.9374 6.51131 13.0858 6.15931 12.061 6.09056L12.0454 6.08873L11.9996 6.08964ZM11.9821 7.62506C11.9208 7.61965 11.859 7.62665 11.8004 7.64565C11.7419 7.66465 11.6877 7.69526 11.6412 7.73564C11.5948 7.77603 11.5569 7.82537 11.5299 7.88072C11.5029 7.93606 11.4873 7.99628 11.4841 8.05777C11.4809 8.11926 11.4902 8.18077 11.5113 8.23862C11.5323 8.29647 11.5649 8.34948 11.6069 8.39448C11.6489 8.43948 11.6996 8.47555 11.7559 8.50053C11.8122 8.52551 11.8729 8.5389 11.9345 8.53989C12.3176 8.56006 12.5624 8.67556 12.7164 8.83048C12.8713 8.98631 12.9868 9.23656 13.0079 9.62798C13.009 9.68948 13.0225 9.75013 13.0476 9.80631C13.0727 9.86248 13.1088 9.91303 13.1539 9.95494C13.1989 9.99686 13.2519 10.0293 13.3097 10.0503C13.3676 10.0713 13.429 10.0804 13.4905 10.0771C13.5519 10.0739 13.612 10.0583 13.6673 10.0313C13.7226 10.0043 13.7719 9.96643 13.8122 9.91998C13.8525 9.87354 13.8831 9.81944 13.9021 9.76093C13.9211 9.70241 13.9281 9.64068 13.9227 9.57939C13.8934 9.02939 13.7211 8.54356 13.3681 8.18606C13.0134 7.82856 12.5303 7.65439 11.9821 7.62506Z" fill="#59656F"/>
</svg>
