<svg width="16" height="16" viewBox="0 0 16 16" fill="none" xmlns="http://www.w3.org/2000/svg">
<path fill-rule="evenodd" clip-rule="evenodd" d="M11.1173 1.75154C9.01984 1.28269 6.84474 1.28269 4.74729 1.75154L4.52129 1.80154C3.93114 1.9331 3.38908 2.22586 2.95547 2.64724C2.52185 3.06861 2.21369 3.60207 2.06529 4.18821C1.53455 6.28334 1.53455 8.47774 2.06529 10.5729C2.20683 11.1319 2.49381 11.6434 2.89707 12.0556C3.30034 12.4678 3.80552 12.7658 4.36129 12.9195L4.67129 14.7702C4.68119 14.829 4.70666 14.884 4.74505 14.9296C4.78344 14.9752 4.83335 15.0096 4.88958 15.0294C4.9458 15.0491 5.0063 15.0534 5.06475 15.0418C5.12321 15.0303 5.1775 15.0032 5.22196 14.9635L7.04263 13.3349C8.40934 13.4174 9.78088 13.3081 11.1173 13.0102L11.344 12.9602C11.9341 12.8287 12.4762 12.5359 12.9098 12.1145C13.3434 11.6931 13.6516 11.1597 13.8 10.5735C14.3307 8.47841 14.3307 6.28401 13.8 4.18888C13.6515 3.60265 13.3432 3.06914 12.9095 2.64775C12.4758 2.22637 11.9336 1.93365 11.3433 1.80221L11.1173 1.75154ZM5.30996 4.13421C5.18605 4.11607 5.05968 4.14101 4.95196 4.20488H4.94263C4.69263 4.35154 4.46729 4.53621 4.27529 4.75354C4.11529 4.93821 4.02863 5.12488 4.00596 5.30488C3.99262 5.41154 4.00196 5.51954 4.03329 5.62154L4.04529 5.62821C4.22529 6.15688 4.45996 6.66554 4.74662 7.14421C5.11642 7.81643 5.57128 8.43821 6.09996 8.99421L6.11596 9.01688L6.14129 9.03554L6.15662 9.05354L6.17529 9.06954C6.73328 9.59976 7.35651 10.0568 8.02996 10.4295C8.79996 10.8489 9.26729 11.0469 9.54796 11.1295V11.1335C9.62996 11.1589 9.70463 11.1702 9.77996 11.1702C10.0191 11.1531 10.2455 11.0558 10.4226 10.8942C10.6393 10.7022 10.8226 10.4762 10.9653 10.2249V10.2202C11.0993 9.96688 11.054 9.72821 10.8606 9.56621C10.4726 9.22649 10.0527 8.92509 9.60663 8.66621C9.30796 8.50421 9.00463 8.60221 8.88196 8.76621L8.61996 9.09688C8.48529 9.26088 8.24129 9.23821 8.24129 9.23821L8.23463 9.24221C6.41396 8.77754 5.92796 6.93421 5.92796 6.93421C5.92796 6.93421 5.90529 6.68354 6.07396 6.55554L6.40196 6.29154C6.55929 6.16354 6.66863 5.86088 6.49996 5.56221C6.24168 5.11649 5.94095 4.69677 5.60196 4.30888C5.52781 4.21779 5.42396 4.15572 5.30862 4.13354M8.38596 3.33288C8.29755 3.33288 8.21277 3.36799 8.15026 3.43051C8.08774 3.49302 8.05263 3.5778 8.05263 3.66621C8.05263 3.75461 8.08774 3.8394 8.15026 3.90191C8.21277 3.96442 8.29755 3.99954 8.38596 3.99954C9.22929 3.99954 9.92929 4.27488 10.4833 4.80288C10.768 5.09154 10.99 5.43354 11.1353 5.80821C11.2813 6.18354 11.348 6.58421 11.3306 6.98554C11.3288 7.02932 11.3356 7.07302 11.3506 7.11417C11.3657 7.15531 11.3887 7.19309 11.4184 7.22534C11.4782 7.29048 11.5616 7.32916 11.65 7.33288C11.7384 7.33659 11.8246 7.30503 11.8898 7.24514C11.9549 7.18526 11.9936 7.10195 11.9973 7.01354C12.0172 6.51991 11.9353 6.02748 11.7566 5.56688C11.5772 5.10393 11.3039 4.68312 10.954 4.33088L10.9473 4.32421C10.26 3.66754 9.38996 3.33288 8.38596 3.33288ZM8.36329 4.42888C8.27489 4.42888 8.1901 4.46399 8.12759 4.52651C8.06508 4.58902 8.02996 4.6738 8.02996 4.76221C8.02996 4.85061 8.06508 4.9354 8.12759 4.99791C8.1901 5.06042 8.27489 5.09554 8.36329 5.09554H8.37463C8.98263 5.13888 9.42529 5.34154 9.73529 5.67421C10.0533 6.01688 10.218 6.44287 10.2053 6.96954C10.2033 7.05795 10.2364 7.14354 10.2975 7.20749C10.3586 7.27144 10.4426 7.30851 10.531 7.31054C10.6194 7.31258 10.705 7.27941 10.7689 7.21833C10.8329 7.15726 10.8699 7.07328 10.872 6.98487C10.888 6.29354 10.6653 5.69688 10.224 5.22088V5.21954C9.77263 4.73554 9.15329 4.47954 8.40796 4.42954L8.39663 4.42821L8.36329 4.42888ZM8.35063 5.54554C8.30602 5.54161 8.26107 5.5467 8.21847 5.56052C8.17588 5.57434 8.1365 5.59659 8.1027 5.62597C8.06889 5.65534 8.04135 5.69122 8.02172 5.73147C8.00209 5.77172 7.99078 5.81552 7.98845 5.86024C7.98612 5.90496 7.99282 5.9497 8.00816 5.99177C8.0235 6.03384 8.04716 6.07239 8.07773 6.10512C8.1083 6.13785 8.14515 6.16408 8.18608 6.18225C8.22701 6.20042 8.27118 6.21015 8.31596 6.21088C8.59463 6.22554 8.77263 6.30954 8.88463 6.42221C8.99729 6.53554 9.08129 6.71754 9.09663 7.00221C9.09746 7.04694 9.10729 7.09105 9.12553 7.1319C9.14377 7.17276 9.17004 7.20952 9.20279 7.24C9.23554 7.27049 9.27409 7.29406 9.31615 7.30933C9.3582 7.3246 9.4029 7.33125 9.44758 7.32887C9.49226 7.3265 9.536 7.31516 9.5762 7.29552C9.6164 7.27589 9.65224 7.24836 9.68157 7.21458C9.71091 7.1808 9.73315 7.14146 9.74696 7.0989C9.76077 7.05635 9.76587 7.01144 9.76196 6.96688C9.74063 6.56687 9.61529 6.21354 9.35863 5.95354C9.10063 5.69354 8.74929 5.56688 8.35063 5.54554Z" fill="#59656F"/>
</svg>
