<svg width="23" height="22" viewBox="0 0 23 22" fill="none" xmlns="http://www.w3.org/2000/svg">
<path d="M11.5009 1.8335C16.5637 1.8335 20.6676 5.93741 20.6676 11.0002C20.6676 16.0629 16.5637 20.1668 11.5009 20.1668C9.88093 20.1696 8.28944 19.7409 6.89008 18.9247L2.33791 20.1668L3.57724 15.6128C2.76045 14.213 2.3314 12.6208 2.33424 11.0002C2.33424 5.93741 6.43816 1.8335 11.5009 1.8335ZM8.37691 6.69183L8.19358 6.69916C8.07504 6.70733 7.95923 6.73846 7.85258 6.79083C7.75319 6.84721 7.66242 6.9176 7.58308 6.99983C7.47308 7.10341 7.41074 7.19325 7.34383 7.28033C7.00477 7.72116 6.82222 8.26237 6.82499 8.8185C6.82683 9.26766 6.94416 9.70491 7.12749 10.1137C7.50241 10.9406 8.11933 11.816 8.93333 12.6272C9.12949 12.8225 9.32199 13.0187 9.52916 13.2011C10.5406 14.0915 11.7459 14.7337 13.0492 15.0766L13.5698 15.1563C13.7394 15.1655 13.909 15.1527 14.0795 15.1444C14.3464 15.1303 14.607 15.0581 14.8431 14.9327C14.963 14.8706 15.0802 14.8034 15.1942 14.731C15.1942 14.731 15.233 14.7047 15.3087 14.6485C15.4325 14.5568 15.5086 14.4917 15.6112 14.3845C15.6882 14.3051 15.7524 14.2128 15.8037 14.1077C15.8752 13.9582 15.9467 13.6732 15.9761 13.4357C15.9981 13.2542 15.9917 13.1552 15.9889 13.0938C15.9852 12.9957 15.9037 12.894 15.8147 12.8509L15.2812 12.6117C15.2812 12.6117 14.4837 12.2642 13.9961 12.0424C13.945 12.0202 13.8904 12.0075 13.8347 12.0048C13.772 11.9983 13.7086 12.0053 13.6488 12.0254C13.589 12.0454 13.5343 12.0781 13.4882 12.1212C13.4837 12.1194 13.4222 12.1717 12.7595 12.9747C12.7215 13.0258 12.6691 13.0644 12.609 13.0856C12.5489 13.1069 12.4839 13.1097 12.4222 13.0938C12.3624 13.0779 12.3039 13.0577 12.2471 13.0333C12.1334 12.9857 12.094 12.9673 12.0161 12.9343C11.4898 12.7051 11.0026 12.3949 10.5723 12.0149C10.4568 11.9141 10.3496 11.8041 10.2396 11.6977C9.87897 11.3524 9.56468 10.9616 9.30458 10.5354L9.25049 10.4483C9.21223 10.3895 9.18086 10.3264 9.15699 10.2604C9.12216 10.1257 9.21291 10.0175 9.21291 10.0175C9.21291 10.0175 9.43566 9.77366 9.53924 9.64166C9.64008 9.51333 9.72533 9.38866 9.78033 9.29975C9.88849 9.12558 9.92241 8.94683 9.86558 8.80841C9.60891 8.18141 9.34369 7.55777 9.06991 6.9375C9.01583 6.81466 8.85541 6.72666 8.70966 6.70925C8.66016 6.70314 8.61066 6.69825 8.56116 6.69458C8.43808 6.68752 8.31466 6.68875 8.19174 6.69825L8.37691 6.69183Z" fill="#59656F"/>
</svg>
